<?xml version="1.0" encoding="utf-8"?>
<!-- Generator: Adobe Illustrator 18.0.0, SVG Export Plug-In . SVG Version: 6.00 Build 0)  -->
<!DOCTYPE svg PUBLIC "-//W3C//DTD SVG 1.1//EN" "http://www.w3.org/Graphics/SVG/1.1/DTD/svg11.dtd">
<svg version="1.1" id="Layer_1" xmlns="http://www.w3.org/2000/svg" xmlns:xlink="http://www.w3.org/1999/xlink" x="0px" y="0px"
	 viewBox="14.9 11.5 582.2 616" enable-background="new 14.9 11.5 582.2 616" xml:space="preserve">
<path fill="#D1603D" d="M193.9,627.5c-2,0-4-0.5-5.8-1.5c-3.5-1.8-6-5.1-6.7-9l-22.2-119.7l-73.1,20.9c-4.4,1.2-9.1,0.1-12.3-3.1
	c-3.3-3.2-4.6-7.8-3.5-12.2l21.3-87.4l-63.8-21.1c-5-1.6-8.5-6.2-8.7-11.5l-4.1-86.4c0-51.7,11.4-93.3,35-127.4V24.3
	c0-4.6,2.5-8.8,6.5-11.1c4-2.3,8.9-2.2,12.9,0.2l113.8,68.2c35.5-12.8,83.1-20.7,126-20.7c41.2,0,84.8,7.5,120.8,20.7l110.6-68.1
	c3.9-2.4,8.9-2.6,13-0.3c4,2.3,6.5,6.6,6.5,11.2v144.8c24.6,35.6,37.1,78.3,37.1,127.1l-5,87.5c-0.3,5.2-3.7,9.7-8.6,11.3
	l-62.4,21.5l21.3,85.4c1.1,1.9,1.7,4,1.7,6.4c0,7.1-5.4,12.9-13,12.8c-1.2,0-2.3-0.1-3.4-0.4l-73-18.8l-22.1,115.2
	c-0.7,3.9-3.2,7.2-6.7,9c-3.5,1.7-7.6,1.8-11.2,0.2l-107.5-50.2l-107.8,50.2C197.6,627.1,195.7,627.5,193.9,627.5L193.9,627.5z
	 M305,550.3h4.1c1.9,0,3.7,0.4,5.4,1.2l96.1,44.8L432,483.8c0.6-3.5,2.7-6.5,5.7-8.4c2.9-1.9,6.6-2.5,10-1.6l65.4,16.9l-19.8-79.2
	c-1.6-6.4,1.9-13,8.2-15.2l65.4-22.6l4.6-78.2c-0.1-44.1-11.7-83.1-34.8-114.9c-1.6-2.2-2.4-4.8-2.4-7.5V47.1l-96.6,59.4
	c-3.4,2.1-7.6,2.5-11.3,1c-34.2-13.4-77-21.2-117.5-21.2c-41.7,0-89.9,8.3-122.6,21.2c-3.7,1.5-7.9,1.1-11.2-1L75.4,46.8v126.4
	c0,2.7-0.8,5.3-2.4,7.5C51.1,211,40.4,248.7,40.4,296l3.6,77l66.6,22c6.3,2.1,10,8.6,8.4,15.1l-18.9,77.5l65.5-18.7
	c3.4-1,7.2-0.5,10.2,1.4c3.1,1.9,5.2,4.9,5.8,8.5l21.8,117.4l96.2-44.7C301.3,550.7,303.2,550.3,305,550.3L305,550.3z"/>
<path fill="#D1603D" d="M305,481.6c-37.3,0-77.5-11.7-77.5-37.5s40.2-37.5,77.5-37.5c37.3,0,77.5,11.7,77.5,37.5
	S342.3,481.6,305,481.6L305,481.6z M305,432.2c-32.3,0-50.2,9.1-52.2,13c2,1.7,19.9,10.9,52.2,10.9c32.3,0,50.2-9.1,52.1-13
	C355.2,441.4,337.3,432.2,305,432.2L305,432.2z"/>
<path fill="#D1603D" d="M241.2,461.1c-7,0-12.8-5.7-12.8-12.8v-197l-53.7-34.5c-5.9-3.8-7.6-11.7-3.8-17.6
	c3.8-5.9,11.7-7.6,17.6-3.8l59.5,38.2c3.6,2.3,5.8,6.4,5.8,10.7v204C254,455.4,248.2,461.1,241.2,461.1z"/>
<path fill="#D1603D" d="M368.7,461.1c-7,0-12.8-5.7-12.8-12.8v-204c0-4.3,2.2-8.4,5.8-10.7l59.5-38.2c6-3.8,13.8-2.1,17.6,3.8
	c3.7,5.9,2.1,13.8-3.8,17.6l-53.7,34.5v197C381.5,455.4,375.7,461.1,368.7,461.1z"/>
</svg>
