<?xml version="1.0" encoding="utf-8"?>
<!-- Generator: Adobe Illustrator 18.0.0, SVG Export Plug-In . SVG Version: 6.00 Build 0)  -->
<!DOCTYPE svg PUBLIC "-//W3C//DTD SVG 1.1//EN" "http://www.w3.org/Graphics/SVG/1.1/DTD/svg11.dtd">
<svg version="1.1" id="Layer_1" xmlns="http://www.w3.org/2000/svg" xmlns:xlink="http://www.w3.org/1999/xlink" x="0px" y="0px"
	 viewBox="91.8 19.6 433.2 589.5" enable-background="new 91.8 19.6 433.2 589.5" xml:space="preserve">
<path display="none" d="M383.4,611.7H231.9l-40.7-79.5V392.5L120.7,321V171.4l30-57.3H84.1V14.1L177.4,61V94l261.8-0.6v-33
	l93.3-46.9v99.9h-66.7l30.3,58v149.7l-72.1,71.5v139.6L383.4,611.7z M244.2,591.7h127l26.4-51.9H217.6L244.2,591.7z M211.2,519.7
	h192.6v-89l-16.3,32.5l-17.9-9l28-55.7h-50.4l-38.8,39.4l-38.6-39.4h-52l29.1,55.6l-17.8,9.3l-17.9-34.1L211.2,519.7L211.2,519.7z
	 M211.2,378.4h67l30.2,30.8l30.4-30.8h65.1V163.8h65.6l-26.3-50.4l-269.7,0.6l-26,49.7l63.9-0.2L211.2,378.4L211.2,378.4z
	 M423.9,254.6v109.8l52.1-51.6v-58.1L423.9,254.6L423.9,254.6z M140.8,312.8l50.4,51.1V254.6l-50.4-0.1V312.8L140.8,312.8z
	 M423.9,234.5H476v-50.6h-52.1L423.9,234.5L423.9,234.5z M140.8,234.3l50.4,0.1v-50.8l-50.4,0.2V234.3L140.8,234.3z M104.2,94h53.1
	V73.4l-53.1-26.7V94z M459.3,93.4h53.1V46.1l-53.1,26.7V93.4z"/>
<path display="none" d="M412.1,615.3H342V595h20.4l-31-97.6l23.6-72.6l-49.7,50.2L258,428.2l23,69.3L248.6,595h21.7v20.3h-71.4V595
	h28.4l32.3-97.6l-33.4-100.6l-0.7-0.7h-1.3v-1.3l-35.5-35.1V278l35.5-37.4V98.4l83.9-84.9l78.3,85.1v141.7l35.9,36.3v80.1
	l-35.6,36.2l-34.1,104.6l31,97.5h28.5L412.1,615.3L412.1,615.3z M244.5,386.4l60.7,60l61.7-62.4l-0.5-41.3l-58.3,61.6l-63.6-62.5
	V386.4z M244.5,313.3l63.1,62l58.6-61.8V183.2H244.5V313.3z M209,351.3l15.2,15v-96.2l-15.2,16V351.3z M386.4,317.5l0.5,46.2
	l15.1-15.3v-63.5l-15.6-15.8L386.4,317.5L386.4,317.5z M278.4,162.9h53.2l-26.3-15L278.4,162.9z M343.6,146.5l22.5,12.8v-12.8H343.6
	z M244.5,146.5v12.2l21.8-12.2H244.5z M305.3,124.7l26.6,15.1V69.3l-24.3-26.4l-27.2,27.5v68.2L305.3,124.7z M352.2,126.2h13.9
	v-19.7l-13.9-15.1V126.2z M244.5,126.2h15.6V90.9l-15.6,15.8V126.2z"/>
<path display="none" d="M485.7,613.3H344.3v-20.1h141.4L485.7,613.3L485.7,613.3z M273.2,613.3H129.4v-20.1h143.9V613.3z
	 M417.9,541.3H198.5l-79.1-76.9V314.2l73.1-72.3l-1.3-140.4L269,21.9h79.6l76.5,79.6L423.8,242l71.9,72.3v150.1L417.9,541.3z
	 M206.6,521.3h203l30.2-29.8v-205l-28.7-28.9l-102.9,35l-103-35.1l-29.3,29v204.9L206.6,521.3z M139.4,456l16.4,15.9V306.4
	l-16.4,16.2V456z M459.9,306.7v164.9l15.8-15.6V322.6L459.9,306.7z M225.1,243.2l83,28.3l83.3-28.3l-82.3-55.6L225.1,243.2z
	 M212.1,186.7l0.4,40.8l61.6-40.8L212.1,186.7L212.1,186.7z M343.8,186.7l60.1,40.6l0.4-40.6L343.8,186.7L343.8,186.7z M225.1,95.5
	h58.1v85l26-17.2l25,16.9V95.5h57.2L340,42h-62.6L225.1,95.5z M354.4,166.6h50.1l0.5-51h-50.5V166.6z M211.9,166.6h51.3v-51h-51.8
	L211.9,166.6z"/>
<path display="none" d="M418,613.3H196.6l-149-148.5V169.6l74.9-80.4h153.9l31.8,33.7l31.1-33.7h151.3l78.4,80.3v295.3L418,613.3z
	 M210.9,593h192.8v-19.3l-95.4-32.4l-97.4,32.5L210.9,593L210.9,593z M424,570.7v8.3l124.9-122.7V177.7l-66.7-68.3H348.3l-39.8,43.1
	l-40.7-43.1H131.4l-63.5,68.1v278.7l122.8,122.4v-7.9l-38-35.9V380.7l57.7-19.3h-93.5v-91.1h94.1v91l42.8-14.3l-5.8-5.7h121
	l-5.8,5.7l40,13.4v-90h94.1v91.1h-90.8l53.9,18v155.4L424,570.7z M173,526.2l30.4,28.7l94.9-31.6V390.9l-28.4-28.1L173,395.2
	L173,526.2L173,526.2z M318.5,523.3l92.7,31.5l28.8-28.5V394L347,362.8l-28.4,28.1V523.3z M297.2,361.4l11.2,11.1l11.2-11.1H297.2z
	 M423.4,341.1H477v-50.6h-53.6V341.1z M137.1,341.1h53.6v-50.6h-53.6V341.1z M551.8,108.1l-72.6-74.3l14.5-14.1L566.3,94
	L551.8,108.1z M65.1,106.3l-14.7-14l69.2-72.6l14.7,14L65.1,106.3z"/>
<path display="none" d="M428.6,611.1H178.9L92.8,442.8v-76.7l-76.6-79.9V110.7h85.7l203-78.8l199.3,78.9h89.4v175.5l-80.4,85.5v71.1
	L428.6,611.1z M197,588.7h213.5v-57.9H197V588.7z M115.2,437.4l59.3,116V364.3l-40.7-79.9v-88.2l88.9-87.9l80.9,40.3l80.4-40.3
	l90.4,87.8v88.3l-41.6,79.9v188.3l57.9-115.2V129.5L304.8,56l-189.7,73.6V437.4z M197,508.3h213.5V369.7l-107.4-36L197,369.7V508.3z
	 M303,310.1l113.2,37.9l35.9-69v-73.3l-72.2-70.1l-76.2,38.2l-76.6-38.2l-70.9,70V279l35,68.9L303,310.1z M513.3,133.1v205.8
	l57.9-61.6V133.1H513.3z M38.6,277.2l54.2,56.5V133.1H38.6V277.2z M256.7,447.9l-39.5-40.7l16.1-15.6l39.5,40.7L256.7,447.9z
	 M352.3,447.8L336,432.4l38.1-40.7l16.4,15.3L352.3,447.8z M275.9,292.9H174.5V189.7h101.4V292.9z M197,270.5h56.5v-58.4H197V270.5z
	 M432.9,292.6H331.5V189.3h101.4V292.6z M354,270.2h56.5v-58.4H354V270.2z"/>
<path display="none" d="M412.9,607.4H194.3L118,530V176.2l-70.5-72.9V19.6h82.2l76.4,73.2l89.2,0.7l8.5-51.4l8.6,51.5l91.6,0.7
	l71.5-74.8h85.7v89.1l-71.5,67.8v344.1L412.9,607.4z M202.6,587.5h201.3l66-74.5V176.5l-51.5-48.8v176.8h37.5v91.1h-90.6v-71.1
	h-19.7l-41.6,83.5l-41.4-83.5h-19.6v71.1h-90.6v-91.1h36.2V124L138,176.2v345.6L202.6,587.5z M385.2,375.5h50.7v-51.1h-50.7V375.5
	L385.2,375.5z M172.3,375.5H223v-51.1h-50.7V375.5z M279.1,312.8L304,363l25-50.2l-25-149.5L279.1,312.8z M365.3,304.4h33.2V114.3
	l-82.5-0.6l31.9,190.7L365.3,304.4L365.3,304.4z M242.9,304.4h17.3l31.8-190.9l-83.6-0.7v191.5H242.9z M422.5,104.1l57.4,54.4
	l61.5-58.3V39.6h-57.3L422.5,104.1z M67.5,95.3l60.5,62.6l56.3-58.3l-62.6-60H67.5C67.5,39.6,67.5,95.3,67.5,95.3z M349.4,490.2h-20
	v-34.9h20V490.2z M278.7,490.2h-20v-34.9h20V490.2z"/>
<path display="none" d="M311.8,608l-112.6-82.7l1-276.1l-72.4-71.5V99.1l76.9-73.4h212.9l75.6,73.4v76.8l-69.5,70.7v278.6L311.8,608
	z M218.8,515.5l93,68.3l92.5-68.3V266.5l-48.3,49.1v173.3l-45.2-87.3l-43.4,89.9V315.7l-47.9-47.3L218.8,515.5z M320.5,377.8
	l16.1,31V251.9h-15.1L320.5,377.8z M287,335v71.3l14-29l1-125.3h-15V335z M187,208.7l80.6,79.6v-40L187,208.7z M356.1,248.2v39.7
	l78.4-79.8L356.1,248.2z M287,232.4h49.5v-64.6l99.3-97.3l-26.1-25.3H212.6l-23.5,22.4L287,168V232.4z M147.3,167.5l120.2,59v-50.6
	l-26.9-27.5h-75.2V90.2l-18.1,17.3L147.3,167.5L147.3,167.5z M356.1,176v50.2L473.9,166v-58.6l-14.3-13.9v54.8h-75.3L356.1,176z
	 M404.2,128.9h35.9V93.7L404.2,128.9z M185,128.9h36.7L185,91.3V128.9z"/>
<path display="none" d="M60.1,625.5V458l63.4-63.4l-62.2-69.1l-1.1-212.2L132.2,36h150.3l27.8,58.9L339.4,36H487l75.6,77.3v215
	l-65.5,65.1l65.5,64.6v166.7L459.3,521.4H508l-0.3-20.7l-101.6-100l-17.2-17.6l-1.4,69.2h41.7l-43.3,81.4l-1.6,77.2H232V383.2
	l-17.5,17.5l-99.2,100l-0.1,20.3l43.6,0.9L60.1,625.5z M251.6,591.4h113.6l5.2-255.2l46.8,48l43.7,1l-61.7-60.8l1.9-1.9l-34.6-66.1
	v-80.9h92.2v89.1l14.5-14.6V125.6l-64.5-70.1h-57.1l-41.6,84.2l-39.7-84.2h-58.5l-65.5,65.8v128.5l58.6,57.9l21.4-44.1h-63.7v-88.2
	h89v80.7l-32.1,66.1l2,2l-60.9,60.9l42.9-1l48-48.1L251.6,591.4L251.6,591.4z M506.4,541l36.6,36.6V466.2l-61.9-61l-43.8-1
	l89.8,88.4l0.7,48.5L506.4,541L506.4,541z M79.6,466.1v110.6l34.6-36.3l-18.5-0.4l0.2-47.5l87.8-88.5l-43,1L79.6,466.1z
	 M387.1,471.8l-0.4,18.7l10-18.7H387.1z M79.6,319.5l57.7,61.4l56.6-56.6L126.7,258V113.3l57.4-57.8h-43.4l-61.3,65.7L79.6,319.5z
	 M426.8,324.2l56.4,55.6l59.9-59.6V121.3l-64.3-65.8h-43.6l57.5,62.5v140L426.8,324.2z M392.4,263.9l23.1,44.1l43.1-43.3
	L392.4,263.9z M385.9,244.3l53.2,0.6V195h-53.2L385.9,244.3L385.9,244.3z M182,244.2h50V195h-50V244.2L182,244.2z M345.5,541h-69.1
	v-19.5h69.1V541L345.5,541z M345.6,471.8h-69.1v-19.5h69.1L345.6,471.8L345.6,471.8z"/>
<path display="none" d="M485.5,610.9l-138-142.1l-37.9,75.1l-38.2-75.4L130.6,606.7l-78.1-80.5V376.6l64.4-68l-64.4-66.4v-77.5
	l77.3-82.9l179.7,143.6L486.3,81.9l80.8,82.7v77.8l-67.4,66.3l67.4,67.8v151.9L485.5,610.9z M354.8,447.7l130.8,134.7l61.6-62.3
	V384.7l-65.8-66.2H354.8V447.7z M72.5,518.1l58.5,60.2L264,447.6v-129H135.1l-62.6,66V518.1z M284,449.4l25.5,50.2l25.3-50.2V310.9
	l-25.3-50.5L284,310.9L284,449.4L284,449.4z M351,298.6h130.5l65.7-64.6v-61.2l-62.4-63.9L322,240.9L351,298.6z M135,298.6h132.8
	l29.1-57.6L131.8,109l-59.3,63.6v61.5L135,298.6z M267,172.8L123.7,30l14.1-14.1l143.2,142.8L267,172.8z M351.9,172.7l-14.2-14
	L478.4,15.9l14.2,14L351.9,172.7z"/>
<path display="none" d="M305.9,612.7L121.1,393.5V109.2L198,31.9h213.7l75.6,77.4v284.2L305.9,612.7z M280.6,552.4l25.2,29.8
	l24.6-29.8l-0.2-94.1l19.5,0l0.1,70.6l48-58v-80.9h19.5v57.3l50.3-60.8V117.2l-16.1-16.5l-0.4,54.8h-88V84.2l-46.4,32.2l33.5,63.6
	l-45.7,180.9l-44.1-180.8l31.2-63.6l-47-32.9v72h-88l-0.3-54.2l-15.8,15.9v269.1l51.7,61.3v-57.7h19.5v80.9l49.2,58.4v-70.9h19.5
	L280.6,552.4L280.6,552.4z M281.2,182.3l23.8,97.5l24.6-97.4l-25.1-47.7L281.2,182.3z M382.9,136H432l0.3-48.8h-49.4V136z
	 M176.2,136h49.1V87.2h-49.4L176.2,136z M303.9,91.7l3.8,7.2l68.6-47.6H233l67.5,47.3L303.9,91.7z M387.2,67.7h32.2l-13-13.3
	L387.2,67.7z M190,67.7h32.3l-19-13.3L190,67.7z"/>
<path display="none" d="M383.5,613.7h-161L110.4,344.1l66.9-64.2l-67.7-34.4v-74.6L39.3,99.3V19.6h20.6v71.2l49.7,50.6V95.1h20.6
	v93.4l60-31l9.4,18.3l-69.5,35.9v21.2l68.7,34.9l20.3,6.7V164.1l39.1-73.8l18.2,9.6l-36.7,69.3v112l64.5,21.2l62.2-20.9V169.1
	l-35.1-69.4l18.4-9.3l37.3,73.8v110.4l20.4-6.9l67.5-34.9v-22.6l-66.5-34.4l9.5-18.3l57,29.5v-92h20.6v47.3l53.2-51.6V19.6h20.6
	v79.8L495.4,171v74.4L429,279.8l67.8,64.3L383.5,613.7z M236.3,593.1h133.6l102.4-243.9L408.8,289l-21.8,7.3v72.1h36.4v94.7h-50.1
	l-25.4,75.9h-3.2l-41.9,41.8l-39.3-41.8h-2.8l-27.1-75.9h-50.5v-94.7h36v-72.4l-21.6-7.1l-62.7,60.2L236.3,593.1z M291.8,539.1
	l11.5,12.2l12.3-12.2H291.8z M275.2,518.5H333l33.3-99.4V303.3l-62.1,20.9l-64.5-21.3V419L275.2,518.5z M380.2,442.6h22.6v-53.6
	h-15.9v33.4L380.2,442.6z M203.7,442.6h22.6l-7.2-20.1v-33.5h-15.4V442.6z M529.6,386.6H509v-69.1l-32.2-33l14.7-14.4l38.1,39V386.6
	z M95,386.6H74.4v-77.5l38.1-39l14.7,14.4l-32.2,33L95,386.6L95,386.6z"/>
<path fill="#D1603D" d="M309.2,609.1L91.8,393.4V19.9l84.5,84.9h265.5L525,19.6v373.8L309.2,609.1z M111.2,385.3l198,196.4
	l196.4-196.4v-15.9l-53.2,27.4l-71,103.4l-146.1,0.3l-69.8-103.7l-54.4-27.3L111.2,385.3L111.2,385.3z M111.2,347.9l67.6,33.9
	l66.8,99.3l53.8-0.1v-52.4L253,378.8h110.8l-44.8,49.8V481l52.3-0.1l68-99l66.4-34.2V197.6L455,222.5h0.5v88.3h-88.9v-66.5
	l132.1-64.9l-56.8-55.1H176.1l-57.9,55.2l104,51.1l24.8,11.3v68.9h-88.5v-88.3h3.2l-50.6-24.9L111.2,347.9L111.2,347.9z
	 M297.6,398.2l11.5,12.3l11.1-12.3L297.6,398.2L297.6,398.2z M386,291.4h50.1v-49.5h-20.6L386,256.4L386,291.4L386,291.4z
	 M178,291.4h49.7v-36.5l-13.7-6.7l-13.7-6.2H178L178,291.4L178,291.4z M111.2,66.9v92.4l47.2-45L111.2,66.9z M459.6,114.4l46.1,44.7
	V67.2L459.6,114.4z"/>
</svg>
