<?xml version="1.0" encoding="utf-8"?>
<!-- Generator: Adobe Illustrator 18.0.0, SVG Export Plug-In . SVG Version: 6.00 Build 0)  -->
<!DOCTYPE svg PUBLIC "-//W3C//DTD SVG 1.1//EN" "http://www.w3.org/Graphics/SVG/1.1/DTD/svg11.dtd">
<svg version="1.1" id="Layer_1" xmlns="http://www.w3.org/2000/svg" xmlns:xlink="http://www.w3.org/1999/xlink" x="0px" y="0px"
	 viewBox="82.7 38.2 380.2 562.8" enable-background="new 82.7 38.2 380.2 562.8" xml:space="preserve">
<g>
	<g>
		<path fill="#D1603D" d="M462.3,592l-21.9-74.9l2.3,1.3c0.9,0.5,2,0.8,3,0.8c0,0,0.1,0,0.1,0c3.4,0,6.1-2.7,6.1-6.1
			c0-0.9-0.2-1.8-0.6-2.6l-26.2-110.4l12.9,7.8c1,0.6,2.1,0.9,3.2,0.9c0,0,0.1,0,0.1,0c3.4,0,6.1-2.7,6.1-6.1c0-0.9-0.2-1.7-0.5-2.5
			l-19.3-86.5l13.6,5.3c0.7,0.3,1.5,0.4,2.3,0.4c3.4-0.1,6.2-2.7,6.2-6.1c0-1.1-0.3-2-0.7-2.9l-30.5-98.9c-0.1-0.3-6.3-28-1-62.8
			c4.7-31,5.3-65.3-19.8-93c-0.2-0.2-0.4-0.4-0.6-0.6c-5.1-5.6-11.2-10.9-18.6-15.8c-1.5-1-3.4-1.3-5.1-0.8
			c-1.7,0.5-3.2,1.7-3.9,3.4L331,127.3l-50,1l-42.9-81.9c-0.2-0.4-0.6-0.8-0.9-1.2c-0.1-0.1-0.1-0.2-0.2-0.3c0,0,0,0,0,0
			c-0.5-0.5-1.1-0.9-1.8-1.2c-0.2-0.1-0.4-0.1-0.5-0.2c-0.5-0.2-1-0.3-1.6-0.3c-0.2,0-0.4,0-0.7,0c-0.2,0-0.4,0-0.6,0
			c-0.3,0-0.6,0.2-0.9,0.3c-0.2,0.1-0.4,0.1-0.6,0.2c-0.7,0.3-1.3,0.7-1.8,1.2c0,0,0,0,0,0c-1.6,1.5-37.1,37.3-23.8,110.3
			c-15.9,14.2-34,40.1-36.4,85.1l-71.9,43.4c-2.1,1-8.6,4.5-11.8,12.5c-3,7.4-2.1,16.2,2.4,25.9l16.6,36.8c0,0.1,0.1,0.1,0.1,0.2
			c0,0,0.1,0.1,0.1,0.1c0.1,0.2,0.2,0.4,0.3,0.6c0.6,0.9,14.6,20.9,62,31.2c7.9,1.7,14.1,2.9,19,3.9c5,1,9.8,1.9,11.9,2.6
			c-0.1,1-0.4,2.5-0.6,3.9c-0.6,3.1-1.3,7.4-1.8,13c-2.1,26.7-32.9,137.9-33.2,139c-0.7,2.5,0.3,5.1,2.4,6.6c2.1,1.5,4.9,1.5,7,0
			l47.6-32.9l61.5,42.8c1.6,1.1,3.5,1.4,5.3,0.8l60.5-19.2l108.6,48.8c0.8,0.4,1.7,0.5,2.5,0.5c0,0,0,0,0.1,0c3.2,0,6.2-2.7,6.2-6.1
			C463,593.8,462.7,592.8,462.3,592z M405.4,146.8c-0.8,5.2-1.3,10.3-1.7,15.1c-2.1,2.5-6.7,6.7-11.1,6.2c-4-0.4-8.3-5.1-12-13.2
			c-10.8-23.5,5.6-66.1,13.7-84.3C409.3,91.6,410,116.8,405.4,146.8z M223.7,74c-1,19.4,0.2,45.5,11.4,62.7
			c-5.2,1.9-12.1,5-19.5,9.9C210.7,113.3,216.8,89.3,223.7,74z M95.8,300.8c1.7-4.3,5.5-6,5.6-6.1c0.3-0.1,0.6-0.3,0.9-0.5l8.5-5.1
			c3.1,4.1,4.3,8.1,3.7,12.2c-1.2,7.8-8.8,14.9-14.8,19.3l-1.6-3.7C94.9,310.3,94.2,304.9,95.8,300.8z M168.6,379
			c-14.1-3.1-24.8-7-32.9-10.9c6.3,0.8,13.3,1.3,20.8,1.3c23.3,0,51-5.1,74.6-23.8c2.6-2.1,3.1-6,1-8.6c-2.1-2.6-6-3.1-8.6-1
			c-40.4,32.1-97.5,18.7-109.9,15.2l-8.7-19.3c7.1-4.8,19.8-15.1,21.8-28.8c0.7-4.9,0.1-9.7-1.8-14.3c13.5,0.8,34-0.1,47.7-10.8
			l62.6,15.7c11.5,4.4,35.6,7,47.6-13.8c3.5-6,7.1-9.5,10.6-10.1c3.2-0.5,5.7,1.6,6.1,1.9l47,37.2l-9.8,5.2c-2.9,1.5-4,5-2.7,7.9
			l11.1,24.7l-8.8,5.5c-2.5,1.6-3.5,4.7-2.4,7.5l10.6,25.9l-13.8-9c-1.8-1.2-4-1.3-5.9-0.5c-1.9,0.9-3.2,2.6-3.6,4.7l-9.2,60.4
			l-13.4-10.3c-0.4-0.3-0.8-0.5-1.2-0.7l-90.6-40.7c-3.1-3.6-9.4-4.8-19.5-6.7C182.5,381.9,176.3,380.7,168.6,379z M348.5,539.5
			c-0.8-0.4-1.7-0.5-2.5-0.5c-0.6,0-1.2,0.1-1.8,0.3l-59.9,19l-62.5-43.5c-2.1-1.5-4.9-1.5-7,0l-37.2,25.8
			C186.3,508,205,437,206.8,415.3c0.4-4.9,1.1-8.7,1.6-11.7l83.4,37.4l21,16.1c1.1,0.8,2.4,1.3,3.7,1.3c0.8,0,1.5-0.1,2.3-0.4
			c2-0.8,3.4-2.6,3.8-4.8l9.3-61.2l22.3,14.6c2.2,1.5,5.2,1.3,7.3-0.4c2.1-1.7,2.8-4.6,1.8-7L347,359.9l8.9-5.6
			c2.6-1.6,3.6-4.9,2.3-7.7l-10.9-24.3l13-6.9c1.8-1,3-2.8,3.2-4.8c0.2-2.1-0.7-4.1-2.3-5.4l-53.9-42.7c-0.7-0.6-6.9-6.1-15.8-4.8
			c-7.4,1.1-14,6.5-19.5,16.1c-9.9,17.1-32,8.8-32.9,8.4c-0.3-0.1-0.5-0.2-0.8-0.3l-66-16.6c-2-0.5-4.2,0.1-5.7,1.5
			c-8.8,8.3-23.6,10-35.4,9.9l46.1-27.8c1.8-1.1,2.9-3,3-5c1.6-43.2,18-67.7,34.1-81.3c0.4-0.2,0.7-0.5,1-0.8
			c15.3-12.6,30.1-15.6,31.4-15.8c2.3-0.4,4.1-2.1,4.8-4.3c0.7-2.2,0-4.6-1.7-6.2c-14.1-13.3-15.3-44.1-13.6-66.2l35.6,68
			c1.1,2.1,3.2,3.3,5.5,3.3l57.7-1.1c2.4,0,4.5-1.5,5.5-3.6l37-82.3c2.9,2.2,5.4,4.5,7.9,6.8c-7.1,15.1-30.3,68.6-15.9,99.6
			c5.8,12.6,13.2,19.4,22,20.3c0.6,0.1,1.2,0.1,1.8,0.1c3.7,0,6.9-1.1,9.8-2.6c0,21.3,3.3,35.7,3.6,36.9l27.2,88.3l-12.5-4.9
			c-2.1-0.8-4.5-0.4-6.2,1c-1.7,1.5-2.5,3.8-2,6l18.9,84.9l-13.1-8c-2.1-1.3-4.8-1.2-6.8,0.3c-2,1.4-2.9,4-2.4,6.4l26.5,112.1
			l-3.2-1.8c-2.2-1.2-4.9-1-6.8,0.5c-2,1.5-2.8,4.1-2.1,6.5l22.8,77.9L348.5,539.5z"/>
		<path fill="#D1603D" d="M241.5,230.1c-12.9,0-24.1,7-24.6,7.3c-2.2,1.4-3.3,4-2.7,6.5c2.5,11,14.1,18.1,29.5,18.1
			c9.1,0,19.8-2.7,22.8-10.3c1-2.7,1.9-7.9-4.2-13.6C256.6,232.8,249.6,230.1,241.5,230.1z M243.7,249.9c-5.7,0-11.8-1.4-15.2-4.6
			c3.4-1.4,8.1-2.9,13-2.9c5,0,9.1,1.5,12.5,4.7c0.2,0.2,0.4,0.4,0.6,0.6C252.9,248.6,249,249.9,243.7,249.9z"/>
	</g>
</g>
</svg>
